<?xml version="1.0" encoding="utf-8"?><svg viewBox="0 0 28 30" xmlns="http://www.w3.org/2000/svg" xmlns:xlink="http://www.w3.org/1999/xlink"><style>:root>svg{display:none}:root>svg:target{display:block}</style><svg fill="none" viewBox="0 0 20 20" id="circle" xmlns="http://www.w3.org/2000/svg"><path fill-rule="evenodd" clip-rule="evenodd" d="M4.734 5.912a6.638 6.638 0 00-1.34 4.995l1.628-.436a4.977 4.977 0 01.903-3.368L4.733 5.911zm1.178-1.179l1.191 1.191a4.973 4.973 0 012.064-.855V3.385a6.634 6.634 0 00-3.255 1.348zm3.255 11.882a6.674 6.674 0 01-5.342-4.098l1.627-.436a5.007 5.007 0 003.715 2.85v1.684zm1.666-1.684a5.001 5.001 0 000-9.862V3.385a6.668 6.668 0 010 13.23V14.93z" fill="#000" fill-opacity=".54"/></svg><svg fill="none" viewBox="0 0 10 10" id="clear" xmlns="http://www.w3.org/2000/svg"><path d="M9.5 1.558L8.443.5 5 3.942 1.558.5.5 1.558 3.942 5 .5 8.443 1.558 9.5 5 6.058 8.443 9.5 9.5 8.443 6.058 5 9.5 1.558z" fill="#000" fill-opacity=".54"/></svg><svg fill="none" viewBox="0 0 18 18" id="delete" xmlns="http://www.w3.org/2000/svg"><path d="M4.5 14.25c0 .825.675 1.5 1.5 1.5h6c.825 0 1.5-.675 1.5-1.5v-9h-9v9zM6 6.75h6v7.5H6v-7.5zM11.625 3l-.75-.75h-3.75l-.75.75H3.75v1.5h10.5V3h-2.625z" fill="#000" fill-opacity=".54"/></svg><svg fill="none" viewBox="0 0 18 18" id="edit" xmlns="http://www.w3.org/2000/svg"><path fill-rule="evenodd" clip-rule="evenodd" d="M12.499 2.575a1.071 1.071 0 00-1.538 0L3.32 10.432a.75.75 0 00-.202.396l-.695 4.046a.75.75 0 00.873.865l3.937-.714a.75.75 0 00.404-.215l5.444-5.595a.216.216 0 00.005-.005l2.194-2.255c.41-.423.41-1.1 0-1.522l-2.78-2.857zm.045 5.038l1.382-1.42-2.195-2.257-1.382 1.42 2.195 2.257zM9.302 6.432L4.556 11.31l-.474 2.76 2.646-.48 4.77-4.901-2.196-2.257z" fill="#000" fill-opacity=".54"/></svg><svg fill="none" viewBox="0 0 16 16" id="option" xmlns="http://www.w3.org/2000/svg"><path fill-rule="evenodd" clip-rule="evenodd" d="M8 5.333c.733 0 1.333-.6 1.333-1.333S8.733 2.667 8 2.667 6.667 3.267 6.667 4 7.267 5.333 8 5.333zm0 1.334c-.733 0-1.333.6-1.333 1.333S7.267 9.333 8 9.333 9.333 8.733 9.333 8 8.733 6.667 8 6.667zm0 4c-.733 0-1.333.6-1.333 1.333s.6 1.333 1.333 1.333 1.333-.6 1.333-1.333-.6-1.333-1.333-1.333z" fill="#000" fill-opacity=".54"/></svg><svg fill="none" viewBox="0 0 18 18" id="plus" xmlns="http://www.w3.org/2000/svg"><path fill-rule="evenodd" clip-rule="evenodd" d="M14.25 9.75h-4.5v4.5h-1.5v-4.5h-4.5v-1.5h4.5v-4.5h1.5v4.5h4.5v1.5z" fill="#1071FF"/></svg><svg fill="none" viewBox="0 0 18 18" id="search" xmlns="http://www.w3.org/2000/svg"><path fill-rule="evenodd" clip-rule="evenodd" d="M12.24 11.18a6 6 0 10-1.06 1.06l3.911 3.912 1.06-1.061-3.911-3.912zM7.5 12a4.5 4.5 0 100-9 4.5 4.5 0 000 9z" fill="#000" fill-opacity=".38"/></svg><svg fill="none" viewBox="0 0 14 14" id="settings" xmlns="http://www.w3.org/2000/svg"><path fill-rule="evenodd" clip-rule="evenodd" d="M.25 10.75v1.5h4.5v-1.5H.25zm0-9v1.5h7.5v-1.5H.25zm7.5 12v-1.5h6v-1.5h-6v-1.5h-1.5v4.5h1.5zm-4.5-9v1.5h-3v1.5h3v1.5h1.5v-4.5h-1.5zm10.5 3v-1.5h-7.5v1.5h7.5zm-4.5-3h1.5v-1.5h3v-1.5h-3V.25h-1.5v4.5z" fill="#1071FF"/></svg><svg fill="none" viewBox="0 0 28 30" id="union" xmlns="http://www.w3.org/2000/svg"><path fill-rule="evenodd" clip-rule="evenodd" d="M17.76 3h6.907c1.466 0 2.666 1.2 2.666 2.667V27c0 1.467-1.2 2.667-2.666 2.667H3.333c-.186 0-.36-.014-.533-.04a2.677 2.677 0 01-1.347-.734 2.825 2.825 0 01-.573-.853A2.735 2.735 0 01.667 27V5.667c0-.374.08-.72.213-1.027a2.67 2.67 0 01.573-.853c.36-.36.827-.627 1.347-.734.173-.04.347-.053.533-.053h6.907C10.8 1.453 12.267.333 14 .333c1.733 0 3.2 1.12 3.76 2.667zM15 3.667c0-.547-.453-1-1-1-.547 0-1 .453-1 1 0 .546.453 1 1 1 .547 0 1-.454 1-1zm-11.667 2V27h21.334V5.667H3.333zM9.607 7l-1.53 1.53L6.547 7l-1.88 1.88 1.53 1.53-1.53 1.53 1.88 1.88 1.53-1.53 1.53 1.53 1.88-1.88-1.53-1.53 1.53-1.53L9.607 7zm10.47 13.53l1.53-1.53 1.88 1.88-1.53 1.53 1.53 1.53-1.88 1.88-1.53-1.53-1.53 1.53-1.88-1.88 1.53-1.53-1.53-1.53 1.88-1.88 1.53 1.53zm-.357-8.443l1.733 1.733 1.88-1.88L18.393 7l-4.94 4.94 1.88 1.88 1.72-1.72v1.567a2.667 2.667 0 01-2.666 2.666h-3.054A5.335 5.335 0 006.1 20.635a2.666 2.666 0 102.716.148A2.668 2.668 0 0111.333 19h3.054a5.333 5.333 0 005.333-5.333v-1.58z" fill="#1071FF"/></svg></svg>